<mxfile host="app.diagrams.net" modified="2023-07-16T13:50:08.479Z" agent="Mozilla/5.0 (Windows NT 10.0; Win64; x64) AppleWebKit/537.36 (KHTML, like Gecko) Chrome/114.0.0.0 Safari/537.36 Edg/114.0.1823.82" etag="I-ryGIvfJYcei3s3FI7Q" version="21.6.2" type="github">
  <diagram name="Page-1" id="IjWerqWPmZBtlasoV66V">
    <mxGraphModel dx="1434" dy="1896" grid="1" gridSize="10" guides="1" tooltips="1" connect="1" arrows="1" fold="1" page="1" pageScale="1" pageWidth="850" pageHeight="1100" math="0" shadow="0">
      <root>
        <mxCell id="0" />
        <mxCell id="1" parent="0" />
        <mxCell id="XXNCJ_Wn4SwCIZURzr-Y-1" value="" style="sketch=0;pointerEvents=1;shadow=0;dashed=0;html=1;strokeColor=none;fillColor=#505050;labelPosition=center;verticalLabelPosition=bottom;verticalAlign=top;outlineConnect=0;align=center;shape=mxgraph.office.devices.laptop;" vertex="1" parent="1">
          <mxGeometry x="289" y="-227" width="58" height="34" as="geometry" />
        </mxCell>
        <mxCell id="XXNCJ_Wn4SwCIZURzr-Y-2" value="" style="sketch=0;pointerEvents=1;shadow=0;dashed=0;html=1;strokeColor=none;fillColor=#505050;labelPosition=center;verticalLabelPosition=bottom;verticalAlign=top;outlineConnect=0;align=center;shape=mxgraph.office.devices.workstation_pc;" vertex="1" parent="1">
          <mxGeometry x="729" y="-230" width="53" height="59" as="geometry" />
        </mxCell>
        <mxCell id="XXNCJ_Wn4SwCIZURzr-Y-3" value="" style="sketch=0;pointerEvents=1;shadow=0;dashed=0;html=1;strokeColor=none;fillColor=#505050;labelPosition=center;verticalLabelPosition=bottom;verticalAlign=top;outlineConnect=0;align=center;shape=mxgraph.office.devices.workstation_visual_studio;" vertex="1" parent="1">
          <mxGeometry x="539" y="-230" width="53" height="59" as="geometry" />
        </mxCell>
        <mxCell id="XXNCJ_Wn4SwCIZURzr-Y-4" value="" style="sketch=0;pointerEvents=1;shadow=0;dashed=0;html=1;strokeColor=none;fillColor=#505050;labelPosition=center;verticalLabelPosition=bottom;verticalAlign=top;outlineConnect=0;align=center;shape=mxgraph.office.devices.workstation;" vertex="1" parent="1">
          <mxGeometry x="69" y="-227" width="53" height="56" as="geometry" />
        </mxCell>
        <mxCell id="XXNCJ_Wn4SwCIZURzr-Y-5" value="" style="fontColor=#0066CC;verticalAlign=top;verticalLabelPosition=bottom;labelPosition=center;align=center;html=1;outlineConnect=0;fillColor=#CCCCCC;strokeColor=#6881B3;gradientColor=none;gradientDirection=north;strokeWidth=2;shape=mxgraph.networks.wireless_modem;" vertex="1" parent="1">
          <mxGeometry x="375" y="-110" width="100" height="85" as="geometry" />
        </mxCell>
        <mxCell id="XXNCJ_Wn4SwCIZURzr-Y-6" value="" style="endArrow=classic;html=1;rounded=0;" edge="1" parent="1" source="XXNCJ_Wn4SwCIZURzr-Y-4" target="XXNCJ_Wn4SwCIZURzr-Y-5">
          <mxGeometry width="50" height="50" relative="1" as="geometry">
            <mxPoint x="70" y="440" as="sourcePoint" />
            <mxPoint x="120" y="390" as="targetPoint" />
          </mxGeometry>
        </mxCell>
        <mxCell id="XXNCJ_Wn4SwCIZURzr-Y-7" value="" style="endArrow=classic;html=1;rounded=0;" edge="1" parent="1" source="XXNCJ_Wn4SwCIZURzr-Y-1" target="XXNCJ_Wn4SwCIZURzr-Y-5">
          <mxGeometry width="50" height="50" relative="1" as="geometry">
            <mxPoint x="340" y="430.5" as="sourcePoint" />
            <mxPoint x="625" y="330.5" as="targetPoint" />
          </mxGeometry>
        </mxCell>
        <mxCell id="XXNCJ_Wn4SwCIZURzr-Y-8" value="" style="endArrow=classic;html=1;rounded=0;" edge="1" parent="1" source="XXNCJ_Wn4SwCIZURzr-Y-3" target="XXNCJ_Wn4SwCIZURzr-Y-5">
          <mxGeometry width="50" height="50" relative="1" as="geometry">
            <mxPoint x="323" y="441" as="sourcePoint" />
            <mxPoint x="379" y="375" as="targetPoint" />
          </mxGeometry>
        </mxCell>
        <mxCell id="XXNCJ_Wn4SwCIZURzr-Y-9" value="" style="endArrow=classic;html=1;rounded=0;" edge="1" parent="1" source="XXNCJ_Wn4SwCIZURzr-Y-2" target="XXNCJ_Wn4SwCIZURzr-Y-5">
          <mxGeometry width="50" height="50" relative="1" as="geometry">
            <mxPoint x="333" y="451" as="sourcePoint" />
            <mxPoint x="389" y="385" as="targetPoint" />
          </mxGeometry>
        </mxCell>
        <mxCell id="XXNCJ_Wn4SwCIZURzr-Y-10" value="" style="ellipse;shape=cloud;whiteSpace=wrap;html=1;" vertex="1" parent="1">
          <mxGeometry x="175" y="60" width="500" height="120" as="geometry" />
        </mxCell>
        <mxCell id="XXNCJ_Wn4SwCIZURzr-Y-11" value="" style="endArrow=classic;startArrow=classic;html=1;rounded=0;entryX=0.5;entryY=0.083;entryDx=0;entryDy=0;entryPerimeter=0;" edge="1" parent="1" source="XXNCJ_Wn4SwCIZURzr-Y-5" target="XXNCJ_Wn4SwCIZURzr-Y-10">
          <mxGeometry width="50" height="50" relative="1" as="geometry">
            <mxPoint x="220" y="290" as="sourcePoint" />
            <mxPoint x="270" y="240" as="targetPoint" />
          </mxGeometry>
        </mxCell>
        <mxCell id="XXNCJ_Wn4SwCIZURzr-Y-13" value="" style="rounded=0;whiteSpace=wrap;html=1;" vertex="1" parent="1">
          <mxGeometry x="40" y="280" width="760" height="1330" as="geometry" />
        </mxCell>
        <mxCell id="XXNCJ_Wn4SwCIZURzr-Y-14" value="" style="endArrow=classic;startArrow=classic;html=1;rounded=0;exitX=0.514;exitY=0.002;exitDx=0;exitDy=0;exitPerimeter=0;" edge="1" parent="1" source="XXNCJ_Wn4SwCIZURzr-Y-13">
          <mxGeometry width="50" height="50" relative="1" as="geometry">
            <mxPoint x="380" y="250" as="sourcePoint" />
            <mxPoint x="431" y="170" as="targetPoint" />
          </mxGeometry>
        </mxCell>
        <mxCell id="XXNCJ_Wn4SwCIZURzr-Y-15" value="" style="fontColor=#0066CC;verticalAlign=top;verticalLabelPosition=bottom;labelPosition=center;align=center;html=1;outlineConnect=0;fillColor=#CCCCCC;strokeColor=#6881B3;gradientColor=none;gradientDirection=north;strokeWidth=2;shape=mxgraph.networks.firewall;" vertex="1" parent="1">
          <mxGeometry x="270" y="400" width="310" height="110" as="geometry" />
        </mxCell>
        <mxCell id="XXNCJ_Wn4SwCIZURzr-Y-16" value="" style="outlineConnect=0;dashed=0;verticalLabelPosition=bottom;verticalAlign=top;align=center;html=1;shape=mxgraph.aws3.application_load_balancer;fillColor=#F58534;gradientColor=none;" vertex="1" parent="1">
          <mxGeometry x="391" y="570" width="69" height="72" as="geometry" />
        </mxCell>
        <mxCell id="XXNCJ_Wn4SwCIZURzr-Y-17" value="" style="image;html=1;image=img/lib/clip_art/computers/Server_Tower_128x128.png" vertex="1" parent="1">
          <mxGeometry x="278" y="750" width="80" height="80" as="geometry" />
        </mxCell>
        <mxCell id="XXNCJ_Wn4SwCIZURzr-Y-18" value="" style="image;html=1;image=img/lib/clip_art/computers/Server_Tower_128x128.png" vertex="1" parent="1">
          <mxGeometry x="395" y="750" width="80" height="80" as="geometry" />
        </mxCell>
        <mxCell id="XXNCJ_Wn4SwCIZURzr-Y-19" value="" style="image;html=1;image=img/lib/clip_art/computers/Server_Tower_128x128.png" vertex="1" parent="1">
          <mxGeometry x="512" y="750" width="80" height="80" as="geometry" />
        </mxCell>
        <mxCell id="XXNCJ_Wn4SwCIZURzr-Y-20" value="" style="outlineConnect=0;dashed=0;verticalLabelPosition=bottom;verticalAlign=top;align=center;html=1;shape=mxgraph.aws3.application_load_balancer;fillColor=#F58534;gradientColor=none;" vertex="1" parent="1">
          <mxGeometry x="391" y="960" width="69" height="72" as="geometry" />
        </mxCell>
        <mxCell id="XXNCJ_Wn4SwCIZURzr-Y-21" value="" style="image;html=1;image=img/lib/clip_art/computers/Server_Tower_128x128.png" vertex="1" parent="1">
          <mxGeometry x="266" y="1160" width="80" height="80" as="geometry" />
        </mxCell>
        <mxCell id="XXNCJ_Wn4SwCIZURzr-Y-22" value="" style="image;html=1;image=img/lib/clip_art/computers/Server_Tower_128x128.png" vertex="1" parent="1">
          <mxGeometry x="383" y="1160" width="80" height="80" as="geometry" />
        </mxCell>
        <mxCell id="XXNCJ_Wn4SwCIZURzr-Y-23" value="" style="image;html=1;image=img/lib/clip_art/computers/Server_Tower_128x128.png" vertex="1" parent="1">
          <mxGeometry x="500" y="1160" width="80" height="80" as="geometry" />
        </mxCell>
        <mxCell id="XXNCJ_Wn4SwCIZURzr-Y-24" value="" style="image;aspect=fixed;perimeter=ellipsePerimeter;html=1;align=center;shadow=0;dashed=0;spacingTop=3;image=img/lib/active_directory/databases.svg;" vertex="1" parent="1">
          <mxGeometry x="360" y="1360" width="131" height="128.38" as="geometry" />
        </mxCell>
      </root>
    </mxGraphModel>
  </diagram>
</mxfile>
